<svg width="48" height="48" viewBox="0 0 48 48" fill="none" xmlns="http://www.w3.org/2000/svg">
<g clip-path="url(#clip0_10_35)">
<path d="M8.33333 15.3333L16 17.5467L24.4267 11.4267L12.3333 11.7733C12.2149 11.7798 12.1002 11.8165 12 11.88L8.17333 14.08C8.0543 14.146 7.95779 14.2461 7.89628 14.3675C7.83478 14.4889 7.81112 14.6259 7.82835 14.7609C7.84558 14.8959 7.90292 15.0226 7.99295 15.1247C8.08297 15.2267 8.20154 15.2994 8.33333 15.3333Z" fill="#2E89B4"/>
<path d="M46.0267 8.48L37.6267 6.66667C36.9202 6.5133 36.1891 6.5137 35.4828 6.66784C34.7765 6.82198 34.1116 7.12625 33.5333 7.56L8.16 26L2.06667 25.7333C1.71765 25.7215 1.37372 25.8195 1.08344 26.0137C0.793163 26.2078 0.571206 26.4883 0.44891 26.8154C0.326613 27.1425 0.310155 27.4997 0.401861 27.8367C0.493566 28.1737 0.688802 28.4733 0.959999 28.6933L6.89333 33.4C6.99101 33.4788 7.10728 33.5312 7.23101 33.5522C7.35473 33.5732 7.48178 33.5621 7.6 33.52C9.29333 32.8667 15.6 29.52 23.0533 25.4267L24.5467 40.7733C24.5593 40.9062 24.6081 41.0332 24.6876 41.1404C24.7671 41.2477 24.8744 41.3312 24.9979 41.382C25.1213 41.4327 25.2563 41.4488 25.3883 41.4285C25.5203 41.4082 25.6442 41.3522 25.7467 41.2667L29.08 38.4933C29.2625 38.3403 29.3852 38.1279 29.4267 37.8933L32.5867 20.1733C37.92 17.2133 43.0133 14.3467 46.6 12.32C46.9722 12.1175 47.2732 11.8054 47.4621 11.4261C47.651 11.0468 47.7188 10.6186 47.6562 10.1995C47.5936 9.7804 47.4038 9.39066 47.1123 9.08309C46.8208 8.77552 46.4418 8.56498 46.0267 8.48Z" fill="#2E89B4"/>
</g>
<defs>
<clipPath id="clip0_10_35">
<rect width="48" height="48" fill="white"/>
</clipPath>
</defs>
</svg>